<svg width="108" height="70" viewBox="0 0 108 70" fill="none" xmlns="http://www.w3.org/2000/svg">
<g clip-path="url(#clip0_1_583)">
<g filter="url(#filter0_d_1_583)">
<path d="M54 69.5C73.0538 69.5 88.5 54.0538 88.5 35C88.5 15.9462 73.0538 0.5 54 0.5C34.9462 0.5 19.5 15.9462 19.5 35C19.5 54.0538 34.9462 69.5 54 69.5Z" fill="url(#paint0_radial_1_583)" stroke="white"/>
<path d="M54 49.5C62.0081 49.5 68.5 43.0081 68.5 35C68.5 26.9919 62.0081 20.5 54 20.5C45.9919 20.5 39.5 26.9919 39.5 35C39.5 43.0081 45.9919 49.5 54 49.5Z" fill="url(#paint1_radial_1_583)" stroke="white"/>
<path d="M101 29L107.5 35.5L101 42" stroke="white"/>
<path d="M7 29L0 35.5L7 42" stroke="white"/>
</g>
</g>
<defs>
<filter id="filter0_d_1_583" x="-5.73481" y="-2" width="118.942" height="80" filterUnits="userSpaceOnUse" color-interpolation-filters="sRGB">
<feFlood flood-opacity="0" result="BackgroundImageFix"/>
<feColorMatrix in="SourceAlpha" type="matrix" values="0 0 0 0 0 0 0 0 0 0 0 0 0 0 0 0 0 0 127 0" result="hardAlpha"/>
<feOffset dy="3"/>
<feGaussianBlur stdDeviation="2.5"/>
<feColorMatrix type="matrix" values="0 0 0 0 0.141176 0 0 0 0 0.196078 0 0 0 0 0.258824 0 0 0 0.2 0"/>
<feBlend mode="normal" in2="BackgroundImageFix" result="effect1_dropShadow_1_583"/>
<feBlend mode="normal" in="SourceGraphic" in2="effect1_dropShadow_1_583" result="shape"/>
</filter>
<radialGradient id="paint0_radial_1_583" cx="0" cy="0" r="1" gradientUnits="userSpaceOnUse" gradientTransform="translate(-33.8148 54) rotate(90) scale(34.5 34.3148)">
<stop stop-color="white" stop-opacity="0.118526"/>
<stop offset="1" stop-color="white" stop-opacity="0.155376"/>
</radialGradient>
<radialGradient id="paint1_radial_1_583" cx="0" cy="0" r="1" gradientUnits="userSpaceOnUse" gradientTransform="translate(-33.8148 54) rotate(90) scale(14.5 14.4222)">
<stop stop-color="white" stop-opacity="0.118526"/>
<stop offset="1" stop-color="white" stop-opacity="0.155376"/>
</radialGradient>
<clipPath id="clip0_1_583">
<rect width="108" height="70" fill="white"/>
</clipPath>
</defs>
</svg>
