<svg xmlns="http://www.w3.org/2000/svg" aria-hidden="true" style="position:absolute;width:0;height:0;overflow:hidden">
  <defs>
    <symbol id="icon-youtube" viewBox="0 0 32 32">
      <path d="M15.991 5.333s-9.528 0-11.919.621A3.939 3.939 0 0 0 1.38 8.665c-.621 2.391-.621 7.343-.621 7.343s0 4.971.621 7.325a3.878 3.878 0 0 0 2.692 2.692c2.41.64 11.919.64 11.919.64s9.546 0 11.938-.621a3.79 3.79 0 0 0 2.674-2.692c.64-2.372.64-7.325.64-7.325s.019-4.971-.64-7.362a3.764 3.764 0 0 0-2.674-2.674c-2.391-.659-11.938-.659-11.938-.659zm-3.032 6.101 7.927 4.575-7.927 4.557v-9.132z"/>
    </symbol>
    <symbol id="icon-facebook" viewBox="0 0 32 32">
      <path d="m23.537 10.582-.368 4.787H18.26v16.63h-6.202v-16.63H8.749v-4.787h3.309V7.366c0-1.418.035-3.603 1.066-4.957C14.209.972 15.7-.001 18.26-.001c4.173 0 5.93.595 5.93.595l-.826 4.902s-1.379-.4-2.666-.4-2.438.461-2.438 1.747v3.738h5.277z"/>
    </symbol>
    <symbol id="icon-instagram" viewBox="0 0 32 32">
      <path d="M16 2.884c4.272 0 4.779.016 6.467.093 4.336.197 6.361 2.255 6.559 6.559.077 1.687.092 2.193.092 6.465 0 4.273-.016 4.779-.092 6.465-.199 4.3-2.219 6.361-6.559 6.559-1.688.077-2.192.093-6.467.093-4.272 0-4.779-.016-6.465-.093-4.347-.199-6.361-2.265-6.559-6.56-.077-1.687-.093-2.192-.093-6.465 0-4.272.017-4.777.093-6.465.199-4.303 2.219-6.361 6.559-6.559 1.688-.076 2.193-.092 6.465-.092zM16 0c-4.345 0-4.889.019-6.596.096C3.593.363.364 3.587.097 9.403.018 11.111 0 11.655 0 16s.019 4.891.096 6.597c.267 5.811 3.491 9.04 9.307 9.307 1.708.077 2.252.096 6.597.096s4.891-.019 6.597-.096c5.805-.267 9.043-3.491 9.305-9.307.079-1.707.097-2.252.097-6.597s-.019-4.889-.096-6.596c-.261-5.805-3.489-9.04-9.305-9.307C20.89.018 20.345 0 15.999 0zm0 7.784a8.217 8.217 0 1 0 .001 16.433A8.217 8.217 0 0 0 16 7.784zm0 13.549a5.333 5.333 0 1 1 0-10.666 5.333 5.333 0 0 1 0 10.666zM24.541 5.54a1.92 1.92 0 1 0 0 3.841 1.92 1.92 0 0 0 0-3.841z"/>
    </symbol>
    <symbol id="icon-linkedin" viewBox="0 0 32 32">
      <path d="M6.864 29.536H.994V10.749h5.87v18.787zM3.78 8.4h-.042C1.615 8.4.235 6.963.235 5.144c0-1.855 1.419-3.262 3.587-3.262 2.165 0 3.497 1.403 3.539 3.256C7.361 6.96 5.985 8.4 3.78 8.4zm26.573 21.136h-6.656v-9.722c0-2.545-1.039-4.28-3.331-4.28-1.753 0-2.726 1.172-3.177 2.301-.169.404-.145.97-.145 1.536v10.165h-6.596s.084-17.221 0-18.787h6.596v2.949c.389-1.289 2.497-3.129 5.861-3.129 4.171 0 7.448 2.702 7.448 8.52v10.448z"/>
    </symbol>
    <symbol id="icon-twitter" viewBox="0 0 32 32">
      <path d="M28.729 8.928c.012.265.015.533.015.801 0 8.18-6.222 17.61-17.61 17.61a17.517 17.517 0 0 1-9.487-2.78c.485.057.976.084 1.476.084 2.9 0 5.569-.988 7.686-2.65a6.187 6.187 0 0 1-5.78-4.298c.376.072.765.108 1.163.108.566 0 1.111-.072 1.632-.217a6.188 6.188 0 0 1-4.966-6.069v-.072a6.217 6.217 0 0 0 2.804.774 6.193 6.193 0 0 1-2.753-5.15c0-1.135.304-2.199.837-3.114a17.559 17.559 0 0 0 12.758 6.466 6.23 6.23 0 0 1-.16-1.409 6.188 6.188 0 0 1 10.704-4.234 12.367 12.367 0 0 0 3.93-1.5 6.208 6.208 0 0 1-2.72 3.424 12.36 12.36 0 0 0 3.554-.976 12.547 12.547 0 0 1-3.084 3.201z"/>
    </symbol>
    <symbol id="icon-arrow-down" viewBox="0 0 32 32">
      <path stroke-width="4.364" d="m0 7.418 14.366 14.255L28.51 7.418"/>
    </symbol>
    <symbol id="icon-arrow-small" viewBox="0 0 32 32">
      <path d="m16.044 8.572-1.319.785 5.316 4.091H0v1.196h20.041l-5.316 4.091 1.319.785 6.813-5.474-6.813-5.474z"/>
    </symbol>
    <symbol id="icon-arrow-right" viewBox="0 0 32 32">
      <path d="m21.392 3.81-1.758 1.747 7.088 9.112H0v2.663h26.722l-7.088 9.112 1.758 1.747 9.084-12.19L21.392 3.81z"/>
    </symbol>
    <symbol id="icon-globe" viewBox="0 0 32 32">
      <path d="M16 .8C7.64.8.8 7.64.8 16S7.64 31.2 16 31.2 31.2 24.36 31.2 16 24.36.8 16 .8zm11.97 9.5h-5.795c-.475-2.945-1.33-5.415-2.47-7.03 3.705 1.045 6.65 3.61 8.265 7.03zM20.75 16c0 1.33-.095 2.565-.19 3.8h-9.12c-.095-1.235-.19-2.47-.19-3.8s.095-2.565.19-3.8h9.12c.095 1.235.19 2.47.19 3.8zM16 29.3c-1.615 0-3.42-2.945-4.275-7.6h8.55c-.855 4.655-2.66 7.6-4.275 7.6zm-4.275-19c.855-4.655 2.66-7.6 4.275-7.6s3.42 2.945 4.275 7.6h-8.55zm.57-7.03c-1.14 1.615-1.995 4.085-2.47 7.03H4.03c1.615-3.42 4.56-5.985 8.265-7.03zM3.27 12.2h6.27c-.095 1.235-.19 2.47-.19 3.8s.095 2.565.19 3.8H3.27c-.38-1.235-.57-2.47-.57-3.8s.19-2.565.57-3.8zm.76 9.5h5.795c.475 2.945 1.33 5.415 2.47 7.03-3.705-1.045-6.65-3.61-8.265-7.03zm15.675 7.03c1.14-1.71 1.995-4.085 2.47-7.03h5.795c-1.615 3.42-4.56 5.985-8.265 7.03zm9.025-8.93h-6.27c.095-1.235.19-2.47.19-3.8s-.095-2.565-.19-3.8h6.27c.38 1.235.57 2.47.57 3.8s-.19 2.565-.57 3.8z"/>
    </symbol>
  </defs>
</svg>
