<svg width="111" height="22" viewBox="0 0 111 22" fill="none" xmlns="http://www.w3.org/2000/svg">
<g clip-path="url(#clip0_1_7)">
<path fill-rule="evenodd" clip-rule="evenodd" d="M17.0079 5.15144C17.0079 7.99677 14.6998 10.3034 11.8526 10.3034C9.00522 10.3034 6.69715 7.99677 6.69715 5.15144C6.69715 2.30668 9.00522 0 11.8526 0C14.6998 0 17.0079 2.30668 17.0079 5.15144ZM5.15542 11.5915C2.30818 11.5915 0 13.8975 0 16.7428C0 19.5879 2.30818 21.8944 5.15542 21.8944C8.00278 21.8944 10.3111 19.5879 10.3111 16.7428C10.3111 13.8975 8.00278 11.5915 5.15542 11.5915ZM18.5496 11.591C15.7024 11.591 13.3942 13.8975 13.3942 16.7428C13.3942 19.5879 15.7024 21.8944 18.5496 21.8944C21.3969 21.8944 23.705 19.5879 23.705 16.7428C23.705 13.8975 21.3969 11.591 18.5496 11.591Z" fill="url(#paint0_radial_1_7)"/>
<path fill-rule="evenodd" clip-rule="evenodd" d="M41.8455 16.6818C41.9127 17.446 42.5244 18.4188 43.5843 18.4188H44.2044C44.4448 18.4188 44.6418 18.2219 44.6418 17.9815V4.35351H44.6391C44.6266 4.12392 44.4368 3.94004 44.2044 3.94004H42.2829C42.0505 3.94004 41.8607 4.12392 41.8478 4.35351H41.8455V5.46086C40.6682 4.01075 38.812 3.40887 36.9506 3.40887C32.7197 3.40887 29.2899 6.83874 29.2899 11.07C29.2899 15.3014 32.7197 18.7314 36.9506 18.7314V18.7318C38.812 18.7318 40.8405 18.0096 41.8452 16.68L41.8455 16.6818ZM36.9582 16.0501C34.2673 16.0501 32.0859 13.8206 32.0859 11.07C32.0859 8.31979 34.2673 6.09019 36.9582 6.09019C39.6489 6.09019 41.8301 8.31979 41.8301 11.07C41.8301 13.8206 39.6489 16.0501 36.9582 16.0501Z" fill="#273347"/>
<path fill-rule="evenodd" clip-rule="evenodd" d="M73.1516 16.6818C73.2188 17.446 73.8306 18.4188 74.8904 18.4188H75.5105C75.7509 18.4188 75.9477 18.2219 75.9477 17.9815V4.35351H75.9453C75.9327 4.12392 75.7427 3.94004 75.5105 3.94004H73.589C73.3566 3.94004 73.1668 4.12392 73.1538 4.35351H73.1516V5.46086C71.9742 4.01075 70.118 3.40887 68.2566 3.40887C64.0257 3.40887 60.596 6.83874 60.596 11.07C60.596 15.3014 64.0257 18.7314 68.2566 18.7314V18.7318C70.118 18.7318 72.1467 18.0096 73.1514 16.68L73.1516 16.6818ZM68.2641 16.0501C65.5735 16.0501 63.3919 13.8206 63.3919 11.07C63.3919 8.31979 65.5735 6.09019 68.2641 6.09019C70.955 6.09019 73.1361 8.31979 73.1361 11.07C73.1361 13.8206 70.955 16.0501 68.2641 16.0501Z" fill="#273347"/>
<path fill-rule="evenodd" clip-rule="evenodd" d="M108.148 16.6818C108.216 17.446 108.827 18.4188 109.887 18.4188H110.507C110.748 18.4188 110.945 18.2219 110.945 17.9815V4.35351H110.942C110.93 4.12392 110.74 3.94004 110.507 3.94004H108.586C108.353 3.94004 108.164 4.12392 108.151 4.35351H108.148V5.46086C106.971 4.01075 105.115 3.40887 103.254 3.40887C99.0226 3.40887 95.5928 6.83874 95.5928 11.07C95.5928 15.3014 99.0226 18.7314 103.254 18.7314V18.7318C105.115 18.7318 107.143 18.0096 108.148 16.68L108.148 16.6818ZM103.261 16.0501C100.57 16.0501 98.3887 13.8206 98.3887 11.07C98.3887 8.31979 100.57 6.09019 103.261 6.09019C105.952 6.09019 108.133 8.31979 108.133 11.07C108.133 13.8206 105.952 16.0501 103.261 16.0501Z" fill="#273347"/>
<path fill-rule="evenodd" clip-rule="evenodd" d="M93.1637 17.1504L93.1627 10.0985H93.163C93.163 6.12334 90.6552 3.44167 86.6563 3.44167C84.7473 3.44167 83.1825 4.54553 82.6299 5.49378C82.5104 4.75232 82.1167 3.97295 80.8961 3.97295H80.2738C80.0332 3.97295 79.8367 4.16998 79.8367 4.41038V16.7158V16.7177V18.0395H79.8391C79.8517 18.2688 80.0417 18.4529 80.2741 18.4529H82.1956C82.225 18.4529 82.2539 18.4494 82.2818 18.4439C82.2945 18.4415 82.3063 18.4365 82.3186 18.433C82.3329 18.4286 82.3478 18.4252 82.3614 18.4196C82.3785 18.4125 82.394 18.403 82.4099 18.3941C82.4177 18.3894 82.4259 18.386 82.4334 18.381C82.4526 18.3687 82.4702 18.3538 82.4872 18.3385C82.49 18.3357 82.4933 18.3339 82.4961 18.3313C82.5152 18.3128 82.5326 18.2925 82.5481 18.2713L82.5482 18.271C82.5964 18.2049 82.6256 18.1253 82.6303 18.0395H82.6328V9.98913C82.6328 7.85421 84.3637 6.12334 86.4987 6.12334C88.6336 6.12334 90.3645 7.85421 90.3645 9.98913L90.3663 16.7182L90.3668 16.7158C90.3668 16.7218 90.3677 16.7279 90.3677 16.7343V18.0395H90.3702C90.3829 18.2688 90.5727 18.4529 90.8051 18.4529H92.7267C92.7563 18.4529 92.785 18.4494 92.8128 18.4439C92.8242 18.4418 92.8347 18.4373 92.8458 18.4341C92.8615 18.4296 92.8777 18.4257 92.8928 18.4196C92.9085 18.4131 92.9228 18.404 92.9377 18.3956C92.9468 18.3905 92.9563 18.3868 92.965 18.381C92.9827 18.3694 92.999 18.3553 93.0149 18.3413C93.019 18.3376 93.0235 18.3348 93.0274 18.331C93.0456 18.3134 93.0618 18.2945 93.0767 18.2746C93.0777 18.2731 93.0789 18.2719 93.0801 18.2704C93.1274 18.2049 93.1563 18.1259 93.1613 18.0407C93.1613 18.0401 93.1616 18.0395 93.1616 18.0395H93.1641V17.1506L93.1637 17.1504Z" fill="#273347"/>
<path fill-rule="evenodd" clip-rule="evenodd" d="M49.2324 14.7299C50.5152 15.6186 51.9154 16.0502 53.261 16.0502C54.5428 16.0502 55.8681 15.3856 55.8681 14.229C55.8681 12.6847 52.9803 12.4444 51.166 11.8277C49.3514 11.211 47.7884 9.93633 47.7884 7.87201C47.7884 4.71324 50.6029 3.40863 53.2298 3.40863C54.8942 3.40863 56.6115 3.95748 57.7248 4.74372C58.1082 5.03425 57.8747 5.36782 57.8747 5.36782L56.812 6.88573C56.6925 7.0567 56.4836 7.20441 56.1838 7.01937C55.884 6.83444 54.8324 6.09008 53.2298 6.09008C51.627 6.09008 50.6616 6.83025 50.6616 7.74768C50.6616 8.84782 51.9164 9.19383 53.3861 9.5688C55.9473 10.2592 58.7412 11.089 58.7412 14.229C58.7412 17.0121 56.138 18.732 53.261 18.732C51.0807 18.732 49.2244 18.1105 47.6676 16.968C47.3432 16.6434 47.5698 16.342 47.5698 16.342L48.6273 14.8318C48.8425 14.5494 49.1138 14.6479 49.2324 14.7299Z" fill="#273347"/>
</g>
<defs>
<radialGradient id="paint0_radial_1_7" cx="0" cy="0" r="1" gradientUnits="userSpaceOnUse" gradientTransform="translate(-13.9567 -3.4936) rotate(147.029) scale(12.4834 12.1253)">
<stop stop-color="#FFB900"/>
<stop offset="0.74709" stop-color="#FA5C86"/>
<stop offset="1" stop-color="#F95353"/>
</radialGradient>
<clipPath id="clip0_1_7">
<rect width="111" height="22" fill="white"/>
</clipPath>
</defs>
</svg>
